<svg width="150" height="50" viewBox="0 0 150 50" fill="none" xmlns="http://www.w3.org/2000/svg"><rect width="150" height="50" rx="4" fill="#F6F6F6" /><path d="M15.9987 8C12.3487 8 9.39001 10.8653 9.39001 14.4C9.39001 16.1667 10.1292 17.7664 11.3247 18.9245C12.5205 20.0832 15.3378 21.76 15.503 23.5199C15.5278 23.7838 15.7251 24 15.9987 24C16.2723 24 16.4695 23.7838 16.4944 23.5199C16.6595 21.76 19.4768 20.0832 20.6726 18.9245C21.8681 17.7664 22.6074 16.1667 22.6074 14.4C22.6074 10.8653 19.6487 8 15.9987 8Z" fill="#FF3D00" /><path d="M15.9987 8C12.3487 8 9.39001 10.8653 9.39001 14.4C9.39001 16.1667 10.1292 17.7664 11.3247 18.9245C12.5205 20.0832 15.3378 21.76 15.503 23.5199C15.5278 23.7838 15.7251 24 15.9987 24C16.2723 24 16.4695 23.7838 16.4944 23.5199C16.6595 21.76 19.4768 20.0832 20.6726 18.9245C21.8681 17.7664 22.6074 16.1667 22.6074 14.4C22.6074 10.8653 19.6487 8 15.9987 8Z" fill="url(#paint0_linear_1104_16986)" /><path d="M15.9998 16.6366C17.2346 16.6366 18.2356 15.6356 18.2356 14.4008C18.2356 13.166 17.2346 12.165 15.9998 12.165C14.765 12.165 13.764 13.166 13.764 14.4008C13.764 15.6356 14.765 16.6366 15.9998 16.6366Z" fill="white" /><text fill="#000" font-family="YS Text,Helvetica Neue,Helvetica,Arial,sans-serif" font-size="14px" font-weight="500" y="21" x="28">5,0</text><path fill-rule="evenodd" clip-rule="evenodd" d="M68.0364 19.3116L64.6413 21.3866C64.2593 21.6201 63.7866 21.2724 63.8956 20.8382L64.8802 16.9174L62.0249 14.6954C61.6653 14.4156 61.8368 13.84 62.2908 13.8025L66.0262 13.4943L67.5833 9.86249C67.7568 9.45792 68.3306 9.45872 68.5029 9.86377L70.0476 13.4943L73.8087 13.8028C74.2634 13.84 74.4347 14.4169 74.074 14.6963L71.2072 16.9174L72.19 20.841C72.2986 21.2748 71.8266 21.6222 71.4447 21.3894L68.0364 19.3116Z" fill="#FFCC00" /><path fill-rule="evenodd" clip-rule="evenodd" d="M84.0364 19.3116L80.6413 21.3866C80.2593 21.6201 79.7866 21.2724 79.8956 20.8382L80.8802 16.9174L78.0249 14.6954C77.6653 14.4156 77.8368 13.84 78.2908 13.8025L82.0262 13.4943L83.5833 9.86249C83.7568 9.45792 84.3306 9.45872 84.5029 9.86377L86.0476 13.4943L89.8087 13.8028C90.2634 13.84 90.4347 14.4169 90.074 14.6963L87.2072 16.9174L88.19 20.841C88.2986 21.2748 87.8266 21.6222 87.4447 21.3894L84.0364 19.3116Z" fill="#FFCC00" /><path fill-rule="evenodd" clip-rule="evenodd" d="M100.036 19.3116L96.6413 21.3866C96.2593 21.6201 95.7866 21.2724 95.8956 20.8382L96.8802 16.9174L94.0249 14.6954C93.6653 14.4156 93.8368 13.84 94.2908 13.8025L98.0262 13.4943L99.5833 9.86249C99.7568 9.45792 100.331 9.45872 100.503 9.86377L102.048 13.4943L105.809 13.8028C106.263 13.84 106.435 14.4169 106.074 14.6963L103.207 16.9174L104.19 20.841C104.299 21.2748 103.827 21.6222 103.445 21.3894L100.036 19.3116Z" fill="#FFCC00" /><path fill-rule="evenodd" clip-rule="evenodd" d="M116.036 19.3116L112.641 21.3866C112.259 21.6201 111.787 21.2724 111.896 20.8382L112.88 16.9174L110.025 14.6954C109.665 14.4156 109.837 13.84 110.291 13.8025L114.026 13.4943L115.583 9.86249C115.757 9.45792 116.331 9.45872 116.503 9.86377L118.048 13.4943L121.809 13.8028C122.263 13.84 122.435 14.4169 122.074 14.6963L119.207 16.9174L120.19 20.841C120.299 21.2748 119.827 21.6222 119.445 21.3894L116.036 19.3116Z" fill="#FFCC00" /><path fill-rule="evenodd" clip-rule="evenodd" d="M132.036 19.3116L128.641 21.3866C128.259 21.6201 127.787 21.2724 127.896 20.8382L128.88 16.9174L126.025 14.6954C125.665 14.4156 125.837 13.84 126.291 13.8025L130.026 13.4943L131.583 9.86249C131.757 9.45792 132.331 9.45872 132.503 9.86377L134.048 13.4943L137.809 13.8028C138.263 13.84 138.435 14.4169 138.074 14.6963L135.207 16.9174L136.19 20.841C136.299 21.2748 135.827 21.6222 135.445 21.3894L132.036 19.3116Z" fill="#FFCC00" /><path d="M8.672 34.264H10.504C11.1547 34.264 11.6587 34.4 12.016 34.672C12.3787 34.9387 12.56 35.3573 12.56 35.928C12.56 36.36 12.4693 36.712 12.288 36.984C12.112 37.256 11.864 37.456 11.544 37.584C11.2293 37.7067 10.8613 37.768 10.44 37.768H9.424V40H8.672V34.264ZM10.44 37.088C10.8453 37.088 11.1733 37 11.424 36.824C11.6747 36.648 11.8 36.352 11.8 35.936C11.8 35.5893 11.688 35.3387 11.464 35.184C11.24 35.0293 10.92 34.952 10.504 34.952H9.424V37.088H10.44ZM15.0957 40.08C14.4024 40.08 13.8717 39.8907 13.5037 39.512C13.141 39.128 12.9597 38.5973 12.9597 37.92C12.9597 37.4667 13.045 37.08 13.2157 36.76C13.3864 36.44 13.621 36.1947 13.9197 36.024C14.2184 35.8533 14.5544 35.768 14.9277 35.768C15.5624 35.768 16.029 35.9787 16.3277 36.4C16.6264 36.816 16.7224 37.3867 16.6157 38.112H13.6877C13.7464 39.0027 14.237 39.448 15.1597 39.448C15.6664 39.448 16.133 39.304 16.5597 39.016V39.648C16.3677 39.7813 16.1437 39.888 15.8877 39.968C15.6317 40.0427 15.3677 40.08 15.0957 40.08ZM14.9117 36.392C14.6077 36.392 14.3464 36.4853 14.1277 36.672C13.909 36.8587 13.7704 37.1413 13.7117 37.52H15.9437C15.9597 37.1627 15.877 36.8853 15.6957 36.688C15.5144 36.4907 15.253 36.392 14.9117 36.392ZM19.3524 35.296C18.931 35.296 18.6164 35.192 18.4084 34.984C18.2004 34.7707 18.0964 34.512 18.0964 34.208H18.8004C18.8004 34.4107 18.8484 34.5573 18.9444 34.648C19.0457 34.7387 19.1817 34.784 19.3524 34.784C19.523 34.784 19.6564 34.7387 19.7524 34.648C19.8484 34.5573 19.8964 34.4107 19.8964 34.208H20.6004C20.6004 34.512 20.4964 34.7707 20.2884 34.984C20.0857 35.192 19.7737 35.296 19.3524 35.296ZM18.2644 35.848V39.024L20.4004 35.848H21.1124V40H20.4084V36.832L18.2804 40H17.5604V35.848H18.2644ZM21.9275 35.848H25.2635V36.448H23.9355V40H23.2315V36.448H21.9275V35.848ZM26.78 35.848V39.024L28.916 35.848H29.628V40H28.924V36.832L26.796 40H26.076V35.848H26.78ZM31.4831 35.848V37.56H33.4911V35.848H34.1951V40H33.4911V38.16H31.4831V40H30.7791V35.848H31.4831ZM35.3494 40V35.848H37.9894V36.448H36.0534V40H35.3494ZM42.1472 40.08C41.7685 40.08 41.4272 39.9973 41.1232 39.832C40.8245 39.6613 40.5872 39.416 40.4112 39.096C40.2352 38.7707 40.1472 38.3787 40.1472 37.92C40.1472 37.4613 40.2352 37.072 40.4112 36.752C40.5872 36.432 40.8245 36.1893 41.1232 36.024C41.4272 35.8533 41.7685 35.768 42.1472 35.768C42.5312 35.768 42.8752 35.8533 43.1792 36.024C43.4832 36.1893 43.7232 36.432 43.8992 36.752C44.0752 37.072 44.1632 37.4613 44.1632 37.92C44.1632 38.3787 44.0752 38.7707 43.8992 39.096C43.7232 39.416 43.4832 39.6613 43.1792 39.832C42.8752 39.9973 42.5312 40.08 42.1472 40.08ZM42.1472 39.448C42.5205 39.448 42.8299 39.3253 43.0752 39.08C43.3205 38.8293 43.4432 38.4427 43.4432 37.92C43.4432 37.3973 43.3205 37.0133 43.0752 36.768C42.8299 36.5173 42.5205 36.392 42.1472 36.392C41.7792 36.392 41.4725 36.5173 41.2272 36.768C40.9872 37.0133 40.8672 37.3973 40.8672 37.92C40.8672 38.4427 40.9872 38.8293 41.2272 39.08C41.4725 39.3253 41.7792 39.448 42.1472 39.448ZM45.0213 35.848H45.6373L45.7093 36.656C45.8426 36.3893 46.0266 36.176 46.2613 36.016C46.5013 35.8507 46.7946 35.768 47.1413 35.768C47.4666 35.768 47.7653 35.848 48.0373 36.008C48.3146 36.1627 48.5386 36.4 48.7093 36.72C48.88 37.0347 48.9653 37.4347 48.9653 37.92C48.9653 38.4053 48.8773 38.808 48.7013 39.128C48.5306 39.448 48.304 39.688 48.0213 39.848C47.744 40.0027 47.44 40.08 47.1093 40.08C46.7946 40.08 46.52 40.0053 46.2853 39.856C46.0506 39.7067 45.864 39.5013 45.7253 39.24V41.416H45.0213V35.848ZM48.2373 37.92C48.2373 37.4187 48.1226 37.04 47.8933 36.784C47.664 36.5227 47.368 36.392 47.0053 36.392C46.6426 36.392 46.336 36.52 46.0853 36.776C45.84 37.0267 45.7173 37.408 45.7173 37.92C45.7173 38.4373 45.84 38.8213 46.0853 39.072C46.336 39.3227 46.6426 39.448 47.0053 39.448C47.368 39.448 47.664 39.32 47.8933 39.064C48.1226 38.808 48.2373 38.4267 48.2373 37.92ZM49.8182 40V35.848H52.4582V36.448H50.5222V40H49.8182ZM54.6012 36.392C54.1585 36.392 53.7105 36.528 53.2572 36.8V36.168C53.4545 36.0453 53.6812 35.9493 53.9372 35.88C54.1985 35.8053 54.4519 35.768 54.6972 35.768C55.2199 35.768 55.6172 35.8773 55.8892 36.096C56.1612 36.3147 56.2972 36.648 56.2972 37.096V39.328C56.2972 39.4187 56.2999 39.536 56.3052 39.68C56.3159 39.8187 56.3265 39.9253 56.3372 40H55.6972C55.6812 39.9253 55.6652 39.8213 55.6492 39.688C55.6385 39.5493 55.6332 39.4293 55.6332 39.328L55.6252 39.208C55.5612 39.336 55.4732 39.4693 55.3612 39.608C55.2492 39.7413 55.0999 39.8533 54.9132 39.944C54.7319 40.0347 54.5052 40.08 54.2332 40.08C53.8599 40.08 53.5585 39.9733 53.3292 39.76C53.0999 39.5467 52.9852 39.2453 52.9852 38.856C52.9852 38.4027 53.1452 38.0693 53.4652 37.856C53.7852 37.6427 54.2359 37.536 54.8172 37.536H55.5932V37.192C55.5932 36.904 55.5185 36.6987 55.3692 36.576C55.2199 36.4533 54.9639 36.392 54.6012 36.392ZM55.5932 38.4V38.096H54.8892C54.4679 38.096 54.1612 38.1573 53.9692 38.28C53.7825 38.4027 53.6892 38.5813 53.6892 38.816C53.6892 39.0027 53.7452 39.1547 53.8572 39.272C53.9745 39.3893 54.1505 39.448 54.3852 39.448C54.6039 39.448 54.7905 39.4053 54.9452 39.32C55.0999 39.2293 55.2252 39.1227 55.3212 39C55.4172 38.872 55.4865 38.752 55.5292 38.64C55.5719 38.528 55.5932 38.448 55.5932 38.4ZM58.1081 35.848V37.56H60.1161V35.848H60.8201V40H60.1161V38.16H58.1081V40H57.4041V35.848H58.1081ZM62.6784 35.848V39.024L64.8144 35.848H65.5264V40H64.8224V36.832L62.6944 40H61.9744V35.848H62.6784ZM67.8856 40.08C67.6242 40.08 67.3709 40.0507 67.1256 39.992C66.8856 39.9333 66.6882 39.8533 66.5336 39.752V39.12C66.7042 39.2213 66.9069 39.3013 67.1416 39.36C67.3762 39.4187 67.6189 39.448 67.8696 39.448C68.1736 39.448 68.4269 39.4 68.6296 39.304C68.8376 39.2027 68.9416 39.032 68.9416 38.792C68.9416 38.5573 68.8536 38.392 68.6776 38.296C68.5069 38.2 68.2429 38.152 67.8856 38.152H67.3336V37.584H67.9096C68.2029 37.584 68.4269 37.5307 68.5816 37.424C68.7362 37.3173 68.8136 37.1627 68.8136 36.96C68.8136 36.7467 68.7202 36.6 68.5336 36.52C68.3522 36.4347 68.1309 36.392 67.8696 36.392C67.4002 36.392 66.9816 36.504 66.6136 36.728V36.096C66.7736 35.9893 66.9682 35.9093 67.1976 35.856C67.4322 35.7973 67.6749 35.768 67.9256 35.768C68.4322 35.768 68.8136 35.864 69.0696 36.056C69.3309 36.248 69.4616 36.5253 69.4616 36.888C69.4616 37.16 69.3869 37.376 69.2376 37.536C69.0882 37.6907 68.8829 37.7947 68.6216 37.848C68.9469 37.8907 69.1949 37.9947 69.3656 38.16C69.5362 38.3253 69.6216 38.536 69.6216 38.792C69.6216 39.1013 69.5389 39.352 69.3736 39.544C69.2136 39.7307 69.0029 39.8667 68.7416 39.952C68.4802 40.0373 68.1949 40.08 67.8856 40.08ZM72.0621 36.392C71.6195 36.392 71.1715 36.528 70.7181 36.8V36.168C70.9155 36.0453 71.1421 35.9493 71.3981 35.88C71.6595 35.8053 71.9128 35.768 72.1581 35.768C72.6808 35.768 73.0781 35.8773 73.3501 36.096C73.6221 36.3147 73.7581 36.648 73.7581 37.096V39.328C73.7581 39.4187 73.7608 39.536 73.7661 39.68C73.7768 39.8187 73.7875 39.9253 73.7981 40H73.1581C73.1421 39.9253 73.1261 39.8213 73.1101 39.688C73.0995 39.5493 73.0941 39.4293 73.0941 39.328L73.0861 39.208C73.0221 39.336 72.9341 39.4693 72.8221 39.608C72.7101 39.7413 72.5608 39.8533 72.3741 39.944C72.1928 40.0347 71.9661 40.08 71.6941 40.08C71.3208 40.08 71.0195 39.9733 70.7901 39.76C70.5608 39.5467 70.4461 39.2453 70.4461 38.856C70.4461 38.4027 70.6061 38.0693 70.9261 37.856C71.2461 37.6427 71.6968 37.536 72.2781 37.536H73.0541V37.192C73.0541 36.904 72.9795 36.6987 72.8301 36.576C72.6808 36.4533 72.4248 36.392 72.0621 36.392ZM73.0541 38.4V38.096H72.3501C71.9288 38.096 71.6221 38.1573 71.4301 38.28C71.2435 38.4027 71.1501 38.5813 71.1501 38.816C71.1501 39.0027 71.2061 39.1547 71.3181 39.272C71.4355 39.3893 71.6115 39.448 71.8461 39.448C72.0648 39.448 72.2515 39.4053 72.4061 39.32C72.5608 39.2293 72.6861 39.1227 72.7821 39C72.8781 38.872 72.9475 38.752 72.9901 38.64C73.0328 38.528 73.0541 38.448 73.0541 38.4ZM74.8651 40V35.848H75.5691V39.4H77.5291V35.848H78.2331V39.4H78.8571V41.184H78.2571L78.1691 40H74.8651ZM80.2956 35.848V39.024L82.4316 35.848H83.1436V40H82.4396V36.832L80.3116 40H79.5916V35.848H80.2956ZM84.9988 35.848V39.024L87.1348 35.848H87.8468V40H87.1428V36.832L85.0148 40H84.2948V35.848H84.9988ZM92.2154 40H90.5994V35.848H92.2314C92.7274 35.848 93.1034 35.936 93.3594 36.112C93.6208 36.2827 93.7514 36.552 93.7514 36.92C93.7514 37.16 93.6874 37.3547 93.5594 37.504C93.4368 37.6533 93.2608 37.76 93.0314 37.824C93.6234 37.92 93.9194 38.248 93.9194 38.808C93.9194 39.0907 93.8448 39.32 93.6954 39.496C93.5514 39.672 93.3514 39.8 93.0954 39.88C92.8394 39.96 92.5461 40 92.2154 40ZM92.2234 36.448H91.3034V37.576H92.1674C92.4341 37.576 92.6474 37.528 92.8074 37.432C92.9728 37.336 93.0554 37.1973 93.0554 37.016C93.0554 36.7973 92.9834 36.648 92.8394 36.568C92.6954 36.488 92.4901 36.448 92.2234 36.448ZM92.2074 38.136H91.3034V39.4H92.2074C92.5061 39.4 92.7461 39.3573 92.9274 39.272C93.1088 39.1813 93.1994 39.0187 93.1994 38.784C93.1994 38.5493 93.1168 38.384 92.9514 38.288C92.7861 38.1867 92.5381 38.136 92.2074 38.136ZM96.632 36C96.632 35.5893 96.72 35.2587 96.896 35.008C97.072 34.752 97.3173 34.5653 97.632 34.448C97.9467 34.3253 98.3093 34.264 98.72 34.264H100.504V40H99.744V37.752H98.632L97.12 40H96.2L97.872 37.6C97.472 37.504 97.1653 37.3253 96.952 37.064C96.7387 36.7973 96.632 36.4427 96.632 36ZM98.64 37.072H99.744V34.952H98.72C98.3413 34.952 98.0293 35.0293 97.784 35.184C97.544 35.3387 97.424 35.6107 97.424 36C97.424 36.368 97.528 36.64 97.736 36.816C97.9493 36.9867 98.2507 37.072 98.64 37.072ZM102.452 35.848V37.56H104.46V35.848H105.164V40H104.46V38.16H102.452V40H101.748V35.848H102.452ZM106.414 41.184H105.782V39.4H106.174C106.345 39.2293 106.465 38.9893 106.534 38.68C106.609 38.3707 106.654 37.984 106.67 37.52C106.686 37.0507 106.694 36.4933 106.694 35.848H109.694V39.4H110.318V41.184H109.702L109.614 40H106.486L106.414 41.184ZM108.99 36.448H107.35C107.345 37.2053 107.318 37.8187 107.27 38.288C107.228 38.752 107.118 39.1227 106.942 39.4H108.99V36.448ZM112.814 40.08C112.121 40.08 111.59 39.8907 111.222 39.512C110.86 39.128 110.678 38.5973 110.678 37.92C110.678 37.4667 110.764 37.08 110.934 36.76C111.105 36.44 111.34 36.1947 111.638 36.024C111.937 35.8533 112.273 35.768 112.646 35.768C113.281 35.768 113.748 35.9787 114.046 36.4C114.345 36.816 114.441 37.3867 114.334 38.112H111.406C111.465 39.0027 111.956 39.448 112.878 39.448C113.385 39.448 113.852 39.304 114.278 39.016V39.648C114.086 39.7813 113.862 39.888 113.606 39.968C113.35 40.0427 113.086 40.08 112.814 40.08ZM112.63 36.392C112.326 36.392 112.065 36.4853 111.846 36.672C111.628 36.8587 111.489 37.1413 111.43 37.52H113.662C113.678 37.1627 113.596 36.8853 113.414 36.688C113.233 36.4907 112.972 36.392 112.63 36.392ZM118.671 40H117.815L116.351 38.232H115.983V40H115.279V35.848H115.983V37.632H116.383L117.839 35.848H118.639L116.935 37.896L118.671 40ZM121.087 40.08C120.441 40.08 119.932 39.8907 119.559 39.512C119.185 39.128 118.999 38.5973 118.999 37.92C118.999 37.2427 119.188 36.7147 119.567 36.336C119.945 35.9573 120.463 35.768 121.119 35.768C121.369 35.768 121.604 35.7973 121.823 35.856C122.041 35.9093 122.217 35.9893 122.351 36.096V36.728C121.988 36.504 121.58 36.392 121.127 36.392C120.647 36.392 120.292 36.52 120.063 36.776C119.833 37.0267 119.719 37.408 119.719 37.92C119.719 38.432 119.828 38.816 120.047 39.072C120.271 39.3227 120.617 39.448 121.087 39.448C121.54 39.448 121.961 39.3387 122.351 39.12V39.752C122.004 39.9707 121.583 40.08 121.087 40.08ZM125.135 40.08C124.441 40.08 123.911 39.8907 123.543 39.512C123.18 39.128 122.999 38.5973 122.999 37.92C122.999 37.4667 123.084 37.08 123.255 36.76C123.425 36.44 123.66 36.1947 123.959 36.024C124.257 35.8533 124.593 35.768 124.967 35.768C125.601 35.768 126.068 35.9787 126.367 36.4C126.665 36.816 126.761 37.3867 126.655 38.112H123.727C123.785 39.0027 124.276 39.448 125.199 39.448C125.705 39.448 126.172 39.304 126.599 39.016V39.648C126.407 39.7813 126.183 39.888 125.927 39.968C125.671 40.0427 125.407 40.08 125.135 40.08ZM124.951 36.392C124.647 36.392 124.385 36.4853 124.167 36.672C123.948 36.8587 123.809 37.1413 123.751 37.52H125.983C125.999 37.1627 125.916 36.8853 125.735 36.688C125.553 36.4907 125.292 36.392 124.951 36.392Z" fill="#4D4D4D" /><defs><linearGradient id="paint0_linear_1104_16986" x1="15.9987" y1="8" x2="15.9987" y2="24" gradientUnits="userSpaceOnUse"><stop stop-color="#FF6122" /><stop offset="1" stop-color="#F22411" /></linearGradient></defs></svg>